<mxfile host="app.diagrams.net" modified="2023-10-19T22:29:01.107Z" agent="Mozilla/5.0 (Windows NT 10.0; Win64; x64) AppleWebKit/537.36 (KHTML, like Gecko) Chrome/118.0.0.0 Safari/537.36" etag="uAN0eR-znBaR-MjZPV58" version="22.0.5" type="device">
  <diagram name="Сторінка-1" id="ABciSUWUErL9aMv9oOaV">
    <mxGraphModel dx="819" dy="-712" grid="1" gridSize="10" guides="1" tooltips="1" connect="1" arrows="1" fold="1" page="1" pageScale="1" pageWidth="827" pageHeight="1169" math="0" shadow="0">
      <root>
        <mxCell id="0" />
        <mxCell id="1" parent="0" />
        <mxCell id="HW2QBS-m62yeihswaj2v-1" style="edgeStyle=orthogonalEdgeStyle;rounded=0;orthogonalLoop=1;jettySize=auto;html=1;exitX=0.5;exitY=0.5;exitDx=0;exitDy=15;exitPerimeter=0;" edge="1" parent="1" source="HW2QBS-m62yeihswaj2v-2" target="HW2QBS-m62yeihswaj2v-4">
          <mxGeometry relative="1" as="geometry">
            <Array as="points">
              <mxPoint x="435.5" y="1362" />
              <mxPoint x="435.5" y="1362" />
            </Array>
          </mxGeometry>
        </mxCell>
        <mxCell id="HW2QBS-m62yeihswaj2v-2" value="Start" style="html=1;dashed=0;whiteSpace=wrap;shape=mxgraph.dfd.start;fillColor=#e1d5e7;strokeColor=#9673a6;" vertex="1" parent="1">
          <mxGeometry x="399.5" y="1315" width="80" height="30" as="geometry" />
        </mxCell>
        <mxCell id="HW2QBS-m62yeihswaj2v-3" style="edgeStyle=orthogonalEdgeStyle;rounded=0;orthogonalLoop=1;jettySize=auto;html=1;exitX=0.5;exitY=1;exitDx=0;exitDy=0;entryX=0.5;entryY=0;entryDx=0;entryDy=0;" edge="1" parent="1" source="HW2QBS-m62yeihswaj2v-4" target="HW2QBS-m62yeihswaj2v-7">
          <mxGeometry relative="1" as="geometry" />
        </mxCell>
        <mxCell id="HW2QBS-m62yeihswaj2v-4" value="Enter a, x, lim_k" style="shape=parallelogram;perimeter=parallelogramPerimeter;whiteSpace=wrap;html=1;fixedSize=1;fillColor=#d5e8d4;strokeColor=#82b366;" vertex="1" parent="1">
          <mxGeometry x="367.25" y="1362" width="152.75" height="25" as="geometry" />
        </mxCell>
        <mxCell id="HW2QBS-m62yeihswaj2v-5" style="edgeStyle=orthogonalEdgeStyle;rounded=0;orthogonalLoop=1;jettySize=auto;html=1;exitX=0.5;exitY=1;exitDx=0;exitDy=0;entryX=0.5;entryY=0;entryDx=0;entryDy=0;" edge="1" parent="1" source="HW2QBS-m62yeihswaj2v-7" target="HW2QBS-m62yeihswaj2v-9">
          <mxGeometry relative="1" as="geometry" />
        </mxCell>
        <mxCell id="HW2QBS-m62yeihswaj2v-6" style="edgeStyle=orthogonalEdgeStyle;rounded=0;orthogonalLoop=1;jettySize=auto;html=1;exitX=1;exitY=0.5;exitDx=0;exitDy=0;" edge="1" parent="1" source="HW2QBS-m62yeihswaj2v-7" target="HW2QBS-m62yeihswaj2v-10">
          <mxGeometry relative="1" as="geometry">
            <Array as="points">
              <mxPoint x="530" y="1424" />
              <mxPoint x="530" y="1530" />
              <mxPoint x="443" y="1530" />
            </Array>
          </mxGeometry>
        </mxCell>
        <mxCell id="HW2QBS-m62yeihswaj2v-7" value="int k = 1;&lt;br&gt;&amp;nbsp;k &amp;lt; lim_k; &lt;br&gt;k++" style="shape=hexagon;perimeter=hexagonPerimeter2;whiteSpace=wrap;html=1;fixedSize=1;fillColor=#fff2cc;strokeColor=#d6b656;" vertex="1" parent="1">
          <mxGeometry x="392.88" y="1399" width="100.5" height="50" as="geometry" />
        </mxCell>
        <mxCell id="HW2QBS-m62yeihswaj2v-8" style="edgeStyle=orthogonalEdgeStyle;rounded=0;orthogonalLoop=1;jettySize=auto;html=1;exitX=0.5;exitY=1;exitDx=0;exitDy=0;entryX=0;entryY=0.5;entryDx=0;entryDy=0;" edge="1" parent="1" source="HW2QBS-m62yeihswaj2v-9" target="HW2QBS-m62yeihswaj2v-7">
          <mxGeometry relative="1" as="geometry">
            <Array as="points">
              <mxPoint x="443" y="1520" />
              <mxPoint x="360" y="1520" />
              <mxPoint x="360" y="1424" />
            </Array>
          </mxGeometry>
        </mxCell>
        <mxCell id="HW2QBS-m62yeihswaj2v-9" value="formula(a, x, k)" style="shape=parallelogram;perimeter=parallelogramPerimeter;whiteSpace=wrap;html=1;fixedSize=1;fillColor=#d5e8d4;strokeColor=#82b366;" vertex="1" parent="1">
          <mxGeometry x="369" y="1470" width="148.25" height="30" as="geometry" />
        </mxCell>
        <mxCell id="HW2QBS-m62yeihswaj2v-10" value="End" style="html=1;dashed=0;whiteSpace=wrap;shape=mxgraph.dfd.start;fillColor=#e1d5e7;strokeColor=#9673a6;" vertex="1" parent="1">
          <mxGeometry x="403.13" y="1540" width="80" height="30" as="geometry" />
        </mxCell>
        <mxCell id="HW2QBS-m62yeihswaj2v-11" value="&lt;div style=&quot;color: rgb(223, 223, 223); background-color: rgb(44, 45, 53); font-family: Consolas, &amp;quot;Courier New&amp;quot;, monospace; font-weight: normal; font-size: 14px; line-height: 19px;&quot;&gt;&lt;div&gt;&lt;span style=&quot;color: #9bdbf5;&quot;&gt;#&lt;/span&gt;&lt;span style=&quot;color: #c395e1;&quot;&gt;include &lt;/span&gt;&lt;span style=&quot;color: #9bdbf5;&quot;&gt;&amp;lt;&lt;/span&gt;&lt;span style=&quot;color: #c7e699;&quot;&gt;iostream&lt;/span&gt;&lt;span style=&quot;color: #9bdbf5;&quot;&gt;&amp;gt;&lt;/span&gt;&lt;/div&gt;&lt;div&gt;&lt;span style=&quot;color: #9bdbf5;&quot;&gt;#&lt;/span&gt;&lt;span style=&quot;color: #c395e1;&quot;&gt;include &lt;/span&gt;&lt;span style=&quot;color: #9bdbf5;&quot;&gt;&amp;lt;&lt;/span&gt;&lt;span style=&quot;color: #c7e699;&quot;&gt;cmath&lt;/span&gt;&lt;span style=&quot;color: #9bdbf5;&quot;&gt;&amp;gt;&lt;/span&gt;&lt;/div&gt;&lt;div&gt;&lt;span style=&quot;color: #9bdbf5;&quot;&gt;#&lt;/span&gt;&lt;span style=&quot;color: #c395e1;&quot;&gt;include &lt;/span&gt;&lt;span style=&quot;color: #9bdbf5;&quot;&gt;&amp;lt;&lt;/span&gt;&lt;span style=&quot;color: #c7e699;&quot;&gt;iomanip&lt;/span&gt;&lt;span style=&quot;color: #9bdbf5;&quot;&gt;&amp;gt;&lt;/span&gt;&lt;/div&gt;&lt;br&gt;&lt;div&gt;&lt;span style=&quot;color: #9bdbf5;&quot;&gt;#&lt;/span&gt;&lt;span style=&quot;color: #c395e1;&quot;&gt;define &lt;/span&gt;&lt;span style=&quot;color: #8aaaf3;&quot;&gt;open&lt;/span&gt;&lt;span style=&quot;color: #9bdbf5;&quot;&gt;(&lt;/span&gt;&lt;span style=&quot;color: #f65d73;&quot;&gt;mod&lt;/span&gt;&lt;span style=&quot;color: #9bdbf5;&quot;&gt;,&lt;/span&gt;&lt;span style=&quot;color: #c395e1;&quot;&gt; &lt;/span&gt;&lt;span style=&quot;color: #f65d73;&quot;&gt;x&lt;/span&gt;&lt;span style=&quot;color: #9bdbf5;&quot;&gt;)&lt;/span&gt;&lt;span style=&quot;color: #c395e1;&quot;&gt; mod&lt;/span&gt;&lt;span style=&quot;color: #bebebe;&quot;&gt;*&lt;/span&gt;&lt;span style=&quot;color: #9bdbf5;&quot;&gt;(&lt;/span&gt;&lt;span style=&quot;color: #c395e1;&quot;&gt;mod&lt;/span&gt;&lt;span style=&quot;color: #bebebe;&quot;&gt;-&lt;/span&gt;&lt;span style=&quot;color: #c395e1;&quot;&gt;x&lt;/span&gt;&lt;span style=&quot;color: #9bdbf5;&quot;&gt;)&lt;/span&gt;&lt;/div&gt;&lt;br&gt;&lt;br&gt;&lt;div&gt;&lt;span style=&quot;color: #c395e1;&quot;&gt;float&lt;/span&gt;&lt;span style=&quot;color: #dfdfdf;&quot;&gt; &lt;/span&gt;&lt;span style=&quot;color: #8aaaf3;&quot;&gt;formula&lt;/span&gt;&lt;span style=&quot;color: #9bdbf5;&quot;&gt;(&lt;/span&gt;&lt;span style=&quot;color: #c395e1;&quot;&gt;int&lt;/span&gt;&lt;span style=&quot;color: #dfdfdf;&quot;&gt; &lt;/span&gt;&lt;span style=&quot;color: #f65d73;&quot;&gt;a&lt;/span&gt;&lt;span style=&quot;color: #9bdbf5;&quot;&gt;,&lt;/span&gt;&lt;span style=&quot;color: #dfdfdf;&quot;&gt; &lt;/span&gt;&lt;span style=&quot;color: #c395e1;&quot;&gt;int&lt;/span&gt;&lt;span style=&quot;color: #dfdfdf;&quot;&gt; &lt;/span&gt;&lt;span style=&quot;color: #f65d73;&quot;&gt;x&lt;/span&gt;&lt;span style=&quot;color: #9bdbf5;&quot;&gt;,&lt;/span&gt;&lt;span style=&quot;color: #dfdfdf;&quot;&gt; &lt;/span&gt;&lt;span style=&quot;color: #c395e1;&quot;&gt;int&lt;/span&gt;&lt;span style=&quot;color: #dfdfdf;&quot;&gt; &lt;/span&gt;&lt;span style=&quot;color: #f65d73;&quot;&gt;lim_k&lt;/span&gt;&lt;span style=&quot;color: #9bdbf5;&quot;&gt;)&lt;/span&gt;&lt;span style=&quot;color: #dfdfdf;&quot;&gt; &lt;/span&gt;&lt;span style=&quot;color: #9bdbf5;&quot;&gt;{&lt;/span&gt;&lt;/div&gt;&lt;div&gt;&lt;span style=&quot;color: #dfdfdf;&quot;&gt;&amp;nbsp; &lt;/span&gt;&lt;span style=&quot;color: #c395e1;&quot;&gt;float&lt;/span&gt;&lt;span style=&quot;color: #dfdfdf;&quot;&gt; &lt;/span&gt;&lt;span style=&quot;color: #a9acc1;&quot;&gt;upper&lt;/span&gt;&lt;span style=&quot;color: #dfdfdf;&quot;&gt; &lt;/span&gt;&lt;span style=&quot;color: #bebebe;&quot;&gt;=&lt;/span&gt;&lt;span style=&quot;color: #dfdfdf;&quot;&gt; &lt;/span&gt;&lt;span style=&quot;color: #8aaaf3;&quot;&gt;pow&lt;/span&gt;&lt;span style=&quot;color: #9bdbf5;&quot;&gt;(&lt;/span&gt;&lt;span style=&quot;color: #f65d73;&quot;&gt;x&lt;/span&gt;&lt;span style=&quot;color: #9bdbf5;&quot;&gt;,&lt;/span&gt;&lt;span style=&quot;color: #dfdfdf;&quot;&gt; &lt;/span&gt;&lt;span style=&quot;color: #f65d73;&quot;&gt;lim_k&lt;/span&gt;&lt;span style=&quot;color: #9bdbf5;&quot;&gt;);&lt;/span&gt;&lt;/div&gt;&lt;div&gt;&lt;span style=&quot;color: #dfdfdf;&quot;&gt;&amp;nbsp; &lt;/span&gt;&lt;span style=&quot;color: #c395e1;&quot;&gt;for&lt;/span&gt;&lt;span style=&quot;color: #dfdfdf;&quot;&gt; &lt;/span&gt;&lt;span style=&quot;color: #9bdbf5;&quot;&gt;(&lt;/span&gt;&lt;span style=&quot;color: #c395e1;&quot;&gt;int&lt;/span&gt;&lt;span style=&quot;color: #dfdfdf;&quot;&gt; &lt;/span&gt;&lt;span style=&quot;color: #a9acc1;&quot;&gt;k&lt;/span&gt;&lt;span style=&quot;color: #dfdfdf;&quot;&gt; &lt;/span&gt;&lt;span style=&quot;color: #bebebe;&quot;&gt;=&lt;/span&gt;&lt;span style=&quot;color: #dfdfdf;&quot;&gt; &lt;/span&gt;&lt;span style=&quot;color: #ef9174;&quot;&gt;1&lt;/span&gt;&lt;span style=&quot;color: #9bdbf5;&quot;&gt;;&lt;/span&gt;&lt;span style=&quot;color: #dfdfdf;&quot;&gt; &lt;/span&gt;&lt;span style=&quot;color: #a9acc1;&quot;&gt;k&lt;/span&gt;&lt;span style=&quot;color: #dfdfdf;&quot;&gt; &lt;/span&gt;&lt;span style=&quot;color: #bebebe;&quot;&gt;&amp;lt;&lt;/span&gt;&lt;span style=&quot;color: #dfdfdf;&quot;&gt; &lt;/span&gt;&lt;span style=&quot;color: #f65d73;&quot;&gt;lim_k&lt;/span&gt;&lt;span style=&quot;color: #9bdbf5;&quot;&gt;;&lt;/span&gt;&lt;span style=&quot;color: #dfdfdf;&quot;&gt; &lt;/span&gt;&lt;span style=&quot;color: #a9acc1;&quot;&gt;k&lt;/span&gt;&lt;span style=&quot;color: #bebebe;&quot;&gt;+=&lt;/span&gt;&lt;span style=&quot;color: #ef9174;&quot;&gt;1&lt;/span&gt;&lt;span style=&quot;color: #9bdbf5;&quot;&gt;,&lt;/span&gt;&lt;span style=&quot;color: #dfdfdf;&quot;&gt; &lt;/span&gt;&lt;span style=&quot;color: #a9acc1;&quot;&gt;upper&lt;/span&gt;&lt;span style=&quot;color: #dfdfdf;&quot;&gt; &lt;/span&gt;&lt;span style=&quot;color: #bebebe;&quot;&gt;*=&lt;/span&gt;&lt;span style=&quot;color: #dfdfdf;&quot;&gt; &lt;/span&gt;&lt;span style=&quot;color: #8aaaf3;&quot;&gt;open&lt;/span&gt;&lt;span style=&quot;color: #9bdbf5;&quot;&gt;(&lt;/span&gt;&lt;span style=&quot;color: #f65d73;&quot;&gt;a&lt;/span&gt;&lt;span style=&quot;color: #9bdbf5;&quot;&gt;,&lt;/span&gt;&lt;span style=&quot;color: #dfdfdf;&quot;&gt; &lt;/span&gt;&lt;span style=&quot;color: #a9acc1;&quot;&gt;k&lt;/span&gt;&lt;span style=&quot;color: #9bdbf5;&quot;&gt;));&lt;/span&gt;&lt;/div&gt;&lt;div&gt;&lt;span style=&quot;color: #dfdfdf;&quot;&gt;&amp;nbsp; &lt;/span&gt;&lt;span style=&quot;color: #c395e1;&quot;&gt;return&lt;/span&gt;&lt;span style=&quot;color: #dfdfdf;&quot;&gt; &lt;/span&gt;&lt;span style=&quot;color: #ef9174;&quot;&gt;1&lt;/span&gt;&lt;span style=&quot;color: #dfdfdf;&quot;&gt; &lt;/span&gt;&lt;span style=&quot;color: #bebebe;&quot;&gt;+&lt;/span&gt;&lt;span style=&quot;color: #dfdfdf;&quot;&gt; &lt;/span&gt;&lt;span style=&quot;color: #a9acc1;&quot;&gt;upper&lt;/span&gt;&lt;span style=&quot;color: #bebebe;&quot;&gt;/&lt;/span&gt;&lt;span style=&quot;color: #8aaaf3;&quot;&gt;tgamma&lt;/span&gt;&lt;span style=&quot;color: #9bdbf5;&quot;&gt;(&lt;/span&gt;&lt;span style=&quot;color: #f65d73;&quot;&gt;lim_k&lt;/span&gt;&lt;span style=&quot;color: #bebebe;&quot;&gt;+&lt;/span&gt;&lt;span style=&quot;color: #ef9174;&quot;&gt;1&lt;/span&gt;&lt;span style=&quot;color: #9bdbf5;&quot;&gt;);&lt;/span&gt;&lt;/div&gt;&lt;div&gt;&lt;span style=&quot;color: #9bdbf5;&quot;&gt;}&lt;/span&gt;&lt;/div&gt;&lt;br&gt;&lt;div&gt;&lt;span style=&quot;color: #c395e1;&quot;&gt;int&lt;/span&gt;&lt;span style=&quot;color: #dfdfdf;&quot;&gt; &lt;/span&gt;&lt;span style=&quot;color: #8aaaf3;&quot;&gt;main&lt;/span&gt;&lt;span style=&quot;color: #9bdbf5;&quot;&gt;()&lt;/span&gt;&lt;span style=&quot;color: #dfdfdf;&quot;&gt; &lt;/span&gt;&lt;span style=&quot;color: #9bdbf5;&quot;&gt;{&lt;/span&gt;&lt;/div&gt;&lt;div&gt;&lt;span style=&quot;color: #dfdfdf;&quot;&gt;&amp;nbsp; &lt;/span&gt;&lt;span style=&quot;color: #c395e1;&quot;&gt;int&lt;/span&gt;&lt;span style=&quot;color: #dfdfdf;&quot;&gt; &lt;/span&gt;&lt;span style=&quot;color: #a9acc1;&quot;&gt;a&lt;/span&gt;&lt;span style=&quot;color: #9bdbf5;&quot;&gt;,&lt;/span&gt;&lt;span style=&quot;color: #dfdfdf;&quot;&gt; &lt;/span&gt;&lt;span style=&quot;color: #a9acc1;&quot;&gt;x&lt;/span&gt;&lt;span style=&quot;color: #9bdbf5;&quot;&gt;,&lt;/span&gt;&lt;span style=&quot;color: #dfdfdf;&quot;&gt; &lt;/span&gt;&lt;span style=&quot;color: #a9acc1;&quot;&gt;lim_k&lt;/span&gt;&lt;span style=&quot;color: #9bdbf5;&quot;&gt;;&lt;/span&gt;&lt;/div&gt;&lt;div&gt;&lt;span style=&quot;color: #dfdfdf;&quot;&gt;&amp;nbsp; std&lt;/span&gt;&lt;span style=&quot;color: #9bdbf5;&quot;&gt;::&lt;/span&gt;&lt;span style=&quot;color: #a9acc1;&quot;&gt;cout&lt;/span&gt;&lt;span style=&quot;color: #dfdfdf;&quot;&gt; &lt;/span&gt;&lt;span style=&quot;color: #8aaaf3;&quot;&gt;&amp;lt;&amp;lt;&lt;/span&gt;&lt;span style=&quot;color: #dfdfdf;&quot;&gt; &lt;/span&gt;&lt;span style=&quot;color: #9bdbf5;&quot;&gt;&quot;&lt;/span&gt;&lt;span style=&quot;color: #c7e699;&quot;&gt;Enter a, x, lim_k: &lt;/span&gt;&lt;span style=&quot;color: #9bdbf5;&quot;&gt;&quot;&lt;/span&gt;&lt;span style=&quot;color: #9bdbf5;&quot;&gt;;&lt;/span&gt;&lt;/div&gt;&lt;div&gt;&lt;span style=&quot;color: #dfdfdf;&quot;&gt;&amp;nbsp; std&lt;/span&gt;&lt;span style=&quot;color: #9bdbf5;&quot;&gt;::&lt;/span&gt;&lt;span style=&quot;color: #a9acc1;&quot;&gt;cin&lt;/span&gt;&lt;span style=&quot;color: #dfdfdf;&quot;&gt; &lt;/span&gt;&lt;span style=&quot;color: #8aaaf3;&quot;&gt;&amp;gt;&amp;gt;&lt;/span&gt;&lt;span style=&quot;color: #dfdfdf;&quot;&gt; &lt;/span&gt;&lt;span style=&quot;color: #a9acc1;&quot;&gt;a&lt;/span&gt;&lt;span style=&quot;color: #dfdfdf;&quot;&gt; &lt;/span&gt;&lt;span style=&quot;color: #8aaaf3;&quot;&gt;&amp;gt;&amp;gt;&lt;/span&gt;&lt;span style=&quot;color: #dfdfdf;&quot;&gt; &lt;/span&gt;&lt;span style=&quot;color: #a9acc1;&quot;&gt;x&lt;/span&gt;&lt;span style=&quot;color: #dfdfdf;&quot;&gt; &lt;/span&gt;&lt;span style=&quot;color: #8aaaf3;&quot;&gt;&amp;gt;&amp;gt;&lt;/span&gt;&lt;span style=&quot;color: #dfdfdf;&quot;&gt; &lt;/span&gt;&lt;span style=&quot;color: #a9acc1;&quot;&gt;lim_k&lt;/span&gt;&lt;span style=&quot;color: #9bdbf5;&quot;&gt;;&lt;/span&gt;&lt;/div&gt;&lt;br&gt;&lt;div&gt;&lt;span style=&quot;color: #dfdfdf;&quot;&gt;&amp;nbsp; &lt;/span&gt;&lt;span style=&quot;color: #c395e1;&quot;&gt;for&lt;/span&gt;&lt;span style=&quot;color: #dfdfdf;&quot;&gt; &lt;/span&gt;&lt;span style=&quot;color: #9bdbf5;&quot;&gt;(&lt;/span&gt;&lt;span style=&quot;color: #c395e1;&quot;&gt;int&lt;/span&gt;&lt;span style=&quot;color: #dfdfdf;&quot;&gt; &lt;/span&gt;&lt;span style=&quot;color: #a9acc1;&quot;&gt;k&lt;/span&gt;&lt;span style=&quot;color: #dfdfdf;&quot;&gt; &lt;/span&gt;&lt;span style=&quot;color: #bebebe;&quot;&gt;=&lt;/span&gt;&lt;span style=&quot;color: #dfdfdf;&quot;&gt; &lt;/span&gt;&lt;span style=&quot;color: #ef9174;&quot;&gt;1&lt;/span&gt;&lt;span style=&quot;color: #9bdbf5;&quot;&gt;;&lt;/span&gt;&lt;span style=&quot;color: #dfdfdf;&quot;&gt; &lt;/span&gt;&lt;span style=&quot;color: #a9acc1;&quot;&gt;k&lt;/span&gt;&lt;span style=&quot;color: #dfdfdf;&quot;&gt; &lt;/span&gt;&lt;span style=&quot;color: #bebebe;&quot;&gt;&amp;lt;&lt;/span&gt;&lt;span style=&quot;color: #dfdfdf;&quot;&gt; &lt;/span&gt;&lt;span style=&quot;color: #a9acc1;&quot;&gt;lim_k&lt;/span&gt;&lt;span style=&quot;color: #9bdbf5;&quot;&gt;;&lt;/span&gt;&lt;span style=&quot;color: #dfdfdf;&quot;&gt; &lt;/span&gt;&lt;span style=&quot;color: #a9acc1;&quot;&gt;k&lt;/span&gt;&lt;span style=&quot;color: #bebebe;&quot;&gt;++&lt;/span&gt;&lt;span style=&quot;color: #9bdbf5;&quot;&gt;)&lt;/span&gt;&lt;span style=&quot;color: #dfdfdf;&quot;&gt; &lt;/span&gt;&lt;/div&gt;&lt;div&gt;&lt;span style=&quot;color: #dfdfdf;&quot;&gt;&amp;nbsp; &amp;nbsp; std&lt;/span&gt;&lt;span style=&quot;color: #9bdbf5;&quot;&gt;::&lt;/span&gt;&lt;span style=&quot;color: #a9acc1;&quot;&gt;cout&lt;/span&gt;&lt;span style=&quot;color: #dfdfdf;&quot;&gt; &lt;/span&gt;&lt;span style=&quot;color: #8aaaf3;&quot;&gt;&amp;lt;&amp;lt;&lt;/span&gt;&lt;span style=&quot;color: #dfdfdf;&quot;&gt; &lt;/span&gt;&lt;span style=&quot;color: #9bdbf5;&quot;&gt;&quot;&lt;/span&gt;&lt;span style=&quot;color: #c7e699;&quot;&gt; f(k) = &lt;/span&gt;&lt;span style=&quot;color: #9bdbf5;&quot;&gt;&quot;&lt;/span&gt;&lt;span style=&quot;color: #dfdfdf;&quot;&gt; &lt;/span&gt;&lt;span style=&quot;color: #8aaaf3;&quot;&gt;&amp;lt;&amp;lt;&lt;/span&gt;&lt;span style=&quot;color: #dfdfdf;&quot;&gt; &lt;/span&gt;&lt;span style=&quot;color: #8aaaf3;&quot;&gt;formula&lt;/span&gt;&lt;span style=&quot;color: #9bdbf5;&quot;&gt;(&lt;/span&gt;&lt;span style=&quot;color: #a9acc1;&quot;&gt;a&lt;/span&gt;&lt;span style=&quot;color: #9bdbf5;&quot;&gt;,&lt;/span&gt;&lt;span style=&quot;color: #dfdfdf;&quot;&gt; &lt;/span&gt;&lt;span style=&quot;color: #a9acc1;&quot;&gt;x&lt;/span&gt;&lt;span style=&quot;color: #9bdbf5;&quot;&gt;,&lt;/span&gt;&lt;span style=&quot;color: #dfdfdf;&quot;&gt; &lt;/span&gt;&lt;span style=&quot;color: #a9acc1;&quot;&gt;k&lt;/span&gt;&lt;span style=&quot;color: #9bdbf5;&quot;&gt;)&lt;/span&gt;&lt;span style=&quot;color: #dfdfdf;&quot;&gt; &lt;/span&gt;&lt;span style=&quot;color: #8aaaf3;&quot;&gt;&amp;lt;&amp;lt;&lt;/span&gt;&lt;span style=&quot;color: #dfdfdf;&quot;&gt; &lt;/span&gt;&lt;span style=&quot;color: #9bdbf5;&quot;&gt;&quot;&lt;/span&gt;&lt;span style=&quot;color: #c7e699;&quot;&gt; &lt;/span&gt;&lt;span style=&quot;color: #9bdbf5;&quot;&gt;\n&quot;&lt;/span&gt;&lt;span style=&quot;color: #9bdbf5;&quot;&gt;;&lt;/span&gt;&lt;/div&gt;&lt;br&gt;&lt;div&gt;&lt;span style=&quot;color: #9bdbf5;&quot;&gt;}&lt;/span&gt;&lt;/div&gt;&lt;/div&gt;" style="text;whiteSpace=wrap;html=1;" vertex="1" parent="1">
          <mxGeometry x="660" y="1280" width="470" height="440" as="geometry" />
        </mxCell>
        <mxCell id="HW2QBS-m62yeihswaj2v-18" style="edgeStyle=orthogonalEdgeStyle;rounded=0;orthogonalLoop=1;jettySize=auto;html=1;exitX=0.5;exitY=0.5;exitDx=0;exitDy=15;exitPerimeter=0;entryX=0.5;entryY=0;entryDx=0;entryDy=0;" edge="1" parent="1" source="HW2QBS-m62yeihswaj2v-13" target="HW2QBS-m62yeihswaj2v-15">
          <mxGeometry relative="1" as="geometry" />
        </mxCell>
        <mxCell id="HW2QBS-m62yeihswaj2v-13" value="float formula(int a, int x, int lim_k)" style="html=1;dashed=0;whiteSpace=wrap;shape=mxgraph.dfd.start;fillColor=#e1d5e7;strokeColor=#9673a6;" vertex="1" parent="1">
          <mxGeometry x="130" y="1341.5" width="210" height="30" as="geometry" />
        </mxCell>
        <mxCell id="HW2QBS-m62yeihswaj2v-14" value="int k = 1; &lt;br&gt;k &amp;lt; lim_k; &lt;br&gt;k+=1, upper *= open(a, k)" style="shape=hexagon;perimeter=hexagonPerimeter2;whiteSpace=wrap;html=1;fixedSize=1;fillColor=#fff2cc;strokeColor=#d6b656;" vertex="1" parent="1">
          <mxGeometry x="150" y="1416.5" width="175.25" height="50" as="geometry" />
        </mxCell>
        <mxCell id="HW2QBS-m62yeihswaj2v-19" style="edgeStyle=orthogonalEdgeStyle;rounded=0;orthogonalLoop=1;jettySize=auto;html=1;exitX=0.5;exitY=1;exitDx=0;exitDy=0;entryX=0.5;entryY=0;entryDx=0;entryDy=0;" edge="1" parent="1" source="HW2QBS-m62yeihswaj2v-15" target="HW2QBS-m62yeihswaj2v-14">
          <mxGeometry relative="1" as="geometry" />
        </mxCell>
        <mxCell id="HW2QBS-m62yeihswaj2v-15" value="upper = pow(x, lim_k)" style="rounded=0;whiteSpace=wrap;html=1;" vertex="1" parent="1">
          <mxGeometry x="170" y="1388.5" width="130" height="18" as="geometry" />
        </mxCell>
        <mxCell id="HW2QBS-m62yeihswaj2v-16" style="edgeStyle=orthogonalEdgeStyle;rounded=0;orthogonalLoop=1;jettySize=auto;html=1;exitX=0;exitY=0.5;exitDx=0;exitDy=0;entryX=0;entryY=0.75;entryDx=0;entryDy=0;" edge="1" parent="1" source="HW2QBS-m62yeihswaj2v-9" target="HW2QBS-m62yeihswaj2v-9">
          <mxGeometry relative="1" as="geometry" />
        </mxCell>
        <mxCell id="HW2QBS-m62yeihswaj2v-17" value="RETURN 1 + upper/tgamma(lim_k+1)" style="html=1;dashed=0;whiteSpace=wrap;shape=mxgraph.dfd.start;fillColor=#e1d5e7;strokeColor=#9673a6;" vertex="1" parent="1">
          <mxGeometry x="152.63" y="1475.5" width="170" height="31" as="geometry" />
        </mxCell>
        <mxCell id="HW2QBS-m62yeihswaj2v-20" style="edgeStyle=orthogonalEdgeStyle;rounded=0;orthogonalLoop=1;jettySize=auto;html=1;exitX=0.5;exitY=1;exitDx=0;exitDy=0;entryX=0.5;entryY=0.5;entryDx=0;entryDy=-15.5;entryPerimeter=0;" edge="1" parent="1" source="HW2QBS-m62yeihswaj2v-14" target="HW2QBS-m62yeihswaj2v-17">
          <mxGeometry relative="1" as="geometry" />
        </mxCell>
      </root>
    </mxGraphModel>
  </diagram>
</mxfile>
